
  <svg viewBox="0 0 64 64">
    <rect rx="10" ry="10" width="100%" height="100%" fill="#1976d2" />
    <g transform="translate(2,14)">
      <svg  width="60" height="34.709366901147725" viewBox="-0.0000133514404296875 0 306.3500061035156 177.22000122070312" stroke="yellow">
        <g>
          <path fill="#f6f6f6" stroke-width="6" d="M153.24 51.21a92.87 92.87 0 0 0-90.85 73.65c2.53-1.17 5.08-2.31 7.7-3.31a113.82 113.82 0 0 1 18-5.27 87.57 87.57 0 0 1 36.86 0 69.75 69.75 0 0 1 16.5 6 66.39 66.39 0 0 1 7.57 4.6c1.12.79 2.22 1.64 3.3 2.48l.87.72.29.24q.28.48.57 0a11.84 11.84 0 0 0 2-1.66c19.75-15.3 46.15-17.11 69.65-10.84a120.45 120.45 0 0 1 17.27 6.1l1 .44a92.87 92.87 0 0 0-90.73-73.15zM11.57 123.61l-.08.99-.74 8.4 41.42-3.66.1-1.17.09-1 .1-1.17-40.15-10.8-.74 8.41zM22.23 83.8l-.38.93-3.16 7.82 40.68 8.61.44-1.1.38-.92.44-1.1-35.24-22.06-3.16 7.82zM75.24 75.39l.63-.78.74-.91-27.25-31.4-5.31 6.55-.63.78-5.3 6.55L74.5 76.31l.74-.92zM97.21 56.3l.82-.55.98-.66-16.88-38-6.99 4.72-.83.55-6.99 4.72 28.91 29.89.98-.67zM123.79 44.48l.96-.29 1.12-.35-5.03-41.27-8.06 2.47-.96.29-8.06 2.46 18.91 37.03 1.12-.34zM152.68 40.94h2.17L162.11 0H144.24l7.26 40.94h1.18zM294.86 124.6l-.09-.99-.73-8.41-40.15 10.8.1 1.17.09 1 .1 1.17L295.6 133l-.74-8.4zM284.5 84.73l-.38-.93-3.16-7.82-35.24 22.06.44 1.1.38.92.44 1.1 40.67-8.61-3.15-7.82zM230.48 74.61l.63.78.74.92 36.38-20.13-5.3-6.55-.63-.78-5.31-6.55-27.25 31.4.74.91zM209.14 56.3l.98.67 28.91-29.89-6.99-4.72-.83-.55-6.99-4.72-16.88 38 .98.66.82.55zM182.56 44.48l1.13.34 18.9-37.03-8.06-2.46-.96-.29-8.06-2.47-5.04 41.27 1.13.35.96.29z"></path>
          <path fill="#00FF00" stroke-width="2" d="M294.12 168.26H293l-122.72-6a31.93 31.93 0 0 1 4.54-3.06 41.39 41.39 0 0 1 8.75-3.57 64.19 64.19 0 0 1 11.59-2.15 120.81 120.81 0 0 1 27.84.83c2.41.31 4.82.7 7.21 1.11 2.63.44 5 .84 7.51 1.22 5.16.74 10.09 1.34 14.91 1.76 2.41.24 4.77.42 7.08.59s4.58.31 6.79.44c4.4.25 8.56.42 12.4.55s7.36.18 10.48.23 5.83 0 8.07 0c4.47 0 7-.08 7-.08s-2.54-.17-7-.58c-2.22-.21-4.9-.48-8-.8s-6.52-.74-10.28-1.22-7.8-1-12.06-1.7c-2.13-.34-4.32-.67-6.53-1.07s-4.48-.77-6.76-1.22c-4.57-.85-9.25-1.9-13.8-3-2.28-.57-4.79-1.26-7-1.87-2.45-.68-4.94-1.34-7.47-1.92a150.69 150.69 0 0 0-15.52-2.86 117.43 117.43 0 0 0-15.88-1 88.85 88.85 0 0 0-15.47 1.35c-1.76.31-3.47.69-5.14 1.12.61-.66 1.25-1.31 1.94-2a35.22 35.22 0 0 1 9-6.09 46.19 46.19 0 0 1 12.35-3.74 66.63 66.63 0 0 1 14.56-.54 91.21 91.21 0 0 1 15 2.32 118.48 118.48 0 0 1 14.07 4.34c2.37.88 4.56 1.69 6.84 2.49s4.67 1.54 6.93 2.14 4.47 1.18 6.6 1.72 4.24 1 6.27 1.32c4 .8 7.78 1.33 11.1 1.78s6.23.71 8.63.89c4.8.37 7.56.39 7.56.39s-2.73-.26-7.41-1.05c-2.33-.39-5.14-.93-8.33-1.63s-6.74-1.56-10.51-2.69c-1.9-.52-3.82-1.18-5.83-1.81s-4-1.38-6-2.2-4.05-1.67-6.09-2.55-4.21-2-6.29-3a119.31 119.31 0 0 0-14.3-6 99.16 99.16 0 0 0-16.49-4.14 82.6 82.6 0 0 0-18.06-.9A66.14 66.14 0 0 0 177.5 128a55.44 55.44 0 0 0-14.07 7.34 53.36 53.36 0 0 0-9.5 8.73c-.18.21-.33.41-.5.62-.17-.21-.32-.41-.5-.62a53.36 53.36 0 0 0-9.5-8.73 55.44 55.44 0 0 0-14.07-7.34 66.14 66.14 0 0 0-17.57-3.56 82.63 82.63 0 0 0-18.06.9 99.41 99.41 0 0 0-16.49 4.14 119.31 119.31 0 0 0-14.3 6c-2.08 1-4.25 2.09-6.29 3s-4 1.78-6.09 2.55-4.08 1.5-6 2.2-3.93 1.29-5.83 1.81c-3.77 1.13-7.34 2-10.51 2.69s-6 1.24-8.33 1.63c-4.67.79-7.41 1.05-7.41 1.05s2.76 0 7.56-.39c2.4-.18 5.31-.48 8.63-.89s7.07-1 11.1-1.78c2-.36 4.1-.85 6.27-1.32s4.37-1.05 6.61-1.72 4.55-1.37 6.92-2.14 4.48-1.61 6.84-2.49a118.48 118.48 0 0 1 14.07-4.34 91.21 91.21 0 0 1 15-2.32 66.63 66.63 0 0 1 14.56.54 46.08 46.08 0 0 1 12.35 3.74 35.22 35.22 0 0 1 9 6.09c.69.64 1.33 1.29 1.94 2-1.67-.43-3.38-.81-5.14-1.12a88.83 88.83 0 0 0-15.46-1.35 117.47 117.47 0 0 0-15.89 1 150.69 150.69 0 0 0-15.52 2.86c-2.53.58-5 1.24-7.47 1.92-2.23.61-4.74 1.3-7 1.87-4.54 1.11-9.22 2.16-13.8 3-2.27.45-4.53.85-6.76 1.22s-4.4.73-6.52 1.07a517.798 517.798 0 0 1-22.35 2.92c-3.07.34-5.75.59-8 .8-4.43.41-7 .58-7 .58s2.55.07 7 .08h8.07c3.12 0 6.68-.14 10.51-.24s8-.3 12.41-.55c2.2-.13 4.46-.25 6.78-.44s4.68-.35 7.08-.59c4.82-.42 9.76-1 14.91-1.76 2.56-.38 4.88-.78 7.51-1.22 2.4-.41 4.8-.8 7.21-1.11a120.81 120.81 0 0 1 27.84-.83 64.19 64.19 0 0 1 11.59 2.15 41.17 41.17 0 0 1 8.75 3.57 31.5 31.5 0 0 1 4.55 3.06l-122.73 6h-1.67c-6.75 0-12.23 4-12.23 8.94h306.35c0-4.96-5.48-8.96-12.23-8.96z"></path>
        </g>
      </svg>
    </g>
  </svg>