
  <svg fill="#00FF00" viewBox="0 0 153 60" style="vertical-align: middle">
    <g  transform="translate(45.7450008392334,0)" stroke="yellow">
      <svg x="0" y="0" width="60" height="34.709366901147725" viewBox="-0.0000133514404296875 0 306.3500061035156 177.22000122070312">
        <g stroke="yellow">
          <path fill="yellow" d="M153.24 51.21a92.87 92.87 0 0 0-90.85 73.65c2.53-1.17 5.08-2.31 7.7-3.31a113.82 113.82 0 0 1 18-5.27 87.57 87.57 0 0 1 36.86 0 69.75 69.75 0 0 1 16.5 6 66.39 66.39 0 0 1 7.57 4.6c1.12.79 2.22 1.62 3.3 2.48l.87.72.29.24q.28.48.57 0a11.84 11.84 0 0 0 2-1.66c19.75-15.3 46.15-17.11 69.65-10.84a120.45 120.45 0 0 1 17.27 6.1l1 .44a92.87 92.87 0 0 0-90.73-73.15zM11.57 123.61l-.08.99-.74 8.4 41.42-3.66.1-1.17.09-1 .1-1.17-40.15-10.8-.74 8.41zM22.23 83.8l-.38.93-3.16 7.82 40.68 8.61.44-1.1.38-.92.44-1.1-35.24-22.06-3.16 7.82zM75.24 75.39l.63-.78.74-.91-27.25-31.4-5.31 6.55-.63.78-5.3 6.55L74.5 76.31l.74-.92zM97.21 56.3l.82-.55.98-.66-16.88-38-6.99 4.72-.83.55-6.99 4.72 28.91 29.89.98-.67zM123.79 44.48l.96-.29 1.12-.35-5.03-41.27-8.06 2.47-.96.29-8.06 2.46 18.91 37.03 1.12-.34zM152.68 40.94h2.17L162.11 0H144.24l7.26 40.94h1.18zM294.86 124.6l-.09-.99-.73-8.41-40.15 10.8.1 1.17.09 1 .1 1.17L295.6 133l-.74-8.4zM284.5 84.73l-.38-.93-3.16-7.82-35.24 22.06.44 1.1.38.92.44 1.1 40.67-8.61-3.15-7.82zM230.48 74.61l.63.78.74.92 36.38-20.13-5.3-6.55-.63-.78-5.31-6.55-27.25 31.4.74.91zM209.14 56.3l.98.67 28.91-29.89-6.99-4.72-.83-.55-6.99-4.72-16.88 38 .98.66.82.55zM182.56 44.48l1.13.34 18.9-37.03-8.06-2.46-.96-.29-8.06-2.47-5.04 41.27 1.13.35.96.29z"></path>
          <path fill="#00FF00" stroke-width="2" d="M294.12 168.26H293l-122.72-6a31.93 31.93 0 0 1 4.54-3.06 41.39 41.39 0 0 1 8.75-3.57 64.19 64.19 0 0 1 11.59-2.15 120.81 120.81 0 0 1 27.84.83c2.41.31 4.82.7 7.21 1.11 2.63.44 5 .84 7.51 1.22 5.16.74 10.09 1.34 14.91 1.76 2.41.24 4.77.42 7.08.59s4.58.31 6.79.44c4.4.25 8.56.42 12.4.55s7.36.18 10.48.23 5.83 0 8.07 0c4.47 0 7-.08 7-.08s-2.54-.17-7-.58c-2.22-.21-4.9-.48-8-.8s-6.52-.74-10.28-1.22-7.8-1-12.06-1.7c-2.13-.34-4.32-.67-6.53-1.07s-4.48-.77-6.76-1.22c-4.57-.85-9.25-1.9-13.8-3-2.28-.57-4.79-1.26-7-1.87-2.45-.68-4.94-1.34-7.47-1.92a150.69 150.69 0 0 0-15.52-2.86 117.43 117.43 0 0 0-15.88-1 88.85 88.85 0 0 0-15.47 1.35c-1.76.31-3.47.69-5.14 1.12.61-.66 1.25-1.31 1.94-2a35.22 35.22 0 0 1 9-6.09 46.19 46.19 0 0 1 12.35-3.74 66.63 66.63 0 0 1 14.56-.54 91.21 91.21 0 0 1 15 2.32 118.48 118.48 0 0 1 14.07 4.34c2.37.88 4.56 1.69 6.84 2.49s4.67 1.54 6.93 2.14 4.47 1.18 6.6 1.72 4.24 1 6.27 1.32c4 .8 7.78 1.33 11.1 1.78s6.23.71 8.63.89c4.8.37 7.56.39 7.56.39s-2.73-.26-7.41-1.05c-2.33-.39-5.14-.93-8.33-1.63s-6.74-1.56-10.51-2.69c-1.9-.52-3.82-1.18-5.83-1.81s-4-1.38-6-2.2-4.05-1.67-6.09-2.55-4.21-2-6.29-3a119.31 119.31 0 0 0-14.3-6 99.16 99.16 0 0 0-16.49-4.14 82.6 82.6 0 0 0-18.06-.9A66.14 66.14 0 0 0 177.5 128a55.44 55.44 0 0 0-14.07 7.34 53.36 53.36 0 0 0-9.5 8.73c-.18.21-.33.41-.5.62-.17-.21-.32-.41-.5-.62a53.36 53.36 0 0 0-9.5-8.73 55.44 55.44 0 0 0-14.07-7.34 66.14 66.14 0 0 0-17.57-3.56 82.63 82.63 0 0 0-18.06.9 99.41 99.41 0 0 0-16.49 4.14 119.31 119.31 0 0 0-14.3 6c-2.08 1-4.25 2.09-6.29 3s-4 1.78-6.09 2.55-4.08 1.5-6 2.2-3.93 1.29-5.83 1.81c-3.77 1.13-7.34 2-10.51 2.69s-6 1.24-8.33 1.63c-4.67.79-7.41 1.05-7.41 1.05s2.76 0 7.56-.39c2.4-.18 5.31-.48 8.63-.89s7.07-1 11.1-1.78c2-.36 4.1-.85 6.27-1.32s4.37-1.05 6.61-1.72 4.55-1.37 6.92-2.14 4.48-1.61 6.84-2.49a118.48 118.48 0 0 1 14.07-4.34 91.21 91.21 0 0 1 15-2.32 66.63 66.63 0 0 1 14.56.54 46.08 46.08 0 0 1 12.35 3.74 35.22 35.22 0 0 1 9 6.09c.69.64 1.33 1.29 1.94 2-1.67-.43-3.38-.81-5.14-1.12a88.83 88.83 0 0 0-15.46-1.35 117.47 117.47 0 0 0-15.89 1 150.69 150.69 0 0 0-15.52 2.86c-2.53.58-5 1.24-7.47 1.92-2.23.61-4.74 1.3-7 1.87-4.54 1.11-9.22 2.16-13.8 3-2.27.45-4.53.85-6.76 1.22s-4.4.73-6.52 1.07a517.798 517.798 0 0 1-22.35 2.92c-3.07.34-5.75.59-8 .8-4.43.41-7 .58-7 .58s2.55.07 7 .08h8.07c3.12 0 6.68-.14 10.51-.24s8-.3 12.41-.55c2.2-.13 4.46-.25 6.78-.44s4.68-.35 7.08-.59c4.82-.42 9.76-1 14.91-1.76 2.56-.38 4.88-.78 7.51-1.22 2.4-.41 4.8-.8 7.21-1.11a120.81 120.81 0 0 1 27.84-.83 64.19 64.19 0 0 1 11.59 2.15 41.17 41.17 0 0 1 8.75 3.57 31.5 31.5 0 0 1 4.55 3.06l-122.73 6h-1.67c-6.75 0-12.23 4-12.23 8.94h306.35c0-4.96-5.48-8.96-12.23-8.96z"></path>
        </g>
      </svg>
    </g>
    <g transform="translate(0,41.70936584472656)">
      <g stroke="#00FF00">
        <path d="M23.25 1.8752000000000002L23.25 1.8752000000000002 2.27 1.8752000000000002Q1.71 1.8752000000000002 1.35 1.6384 0.99 1.4080000000000001 0.99 1.0495999999999999L0.99 1.0495999999999999 0.99-14.246400000000001Q0.99-14.604800000000001 1.35-14.8352 1.71-15.0656 2.27-15.0656L2.27-15.0656 23.25-15.0656Q23.81-15.0656 24.17-14.8352 24.53-14.604800000000001 24.53-14.246400000000001L24.53-14.246400000000001 24.53 1.0495999999999999Q24.53 1.4080000000000001 24.17 1.6384 23.81 1.8752000000000002 23.25 1.8752000000000002L23.25 1.8752000000000002 23.25 1.8752000000000002ZM3.55-13.408L3.55 0.21120000000000003 21.93 0.21120000000000003 21.93-6.2528 8.52-6.2528 8.52-7.9104 21.93-7.9104 21.93-13.408 3.55-13.408ZM34.95-3.5136000000000003L34.95 1.8304 32.35 1.8304 32.35-3.5136000000000003 24.16-10.0608 26.2-11.091199999999999 33.63-5.1136 41.1-11.091199999999999 43.13-10.0608 34.95-3.5136000000000003Z" transform="translate(-0.9900000095367432, 15.065600395202637)" stroke-width="0.4" stroke-linejoin="round"></path>
      </g>
      <g fill="yellow" transform="translate(45.539999389648436,0)">
        <g transform="scale(1)">
          <path d="M2.31 0.35200000000000004L5.59 0.35200000000000004 5.59-5.344 9.31-5.344Q12.81-5.4079999999999995 14.74-6.752000000000001 16.67-8.096 16.7-9.945599999999999L16.7-9.945599999999999Q16.54-12.3328 14.24-13.433599999999998 11.95-14.528 9.63-14.5088L9.63-14.5088 2.31-14.5088 2.31 0.35200000000000004ZM5.59-7.1936L5.59-12.6592 9.12-12.6592Q10.82-12.64 12.03-11.9168 13.23-11.200000000000001 13.29-9.945599999999999L13.29-9.945599999999999Q13.23-8.5056 11.98-7.8528 10.73-7.1936 8.99-7.1936L8.99-7.1936 5.59-7.1936ZM18 0.35200000000000004L21.15 0.35200000000000004 21.15-6.534400000000001Q20.99-8.8768 24.94-9.3696L24.94-9.3696 24.94-11.3856Q22.18-11.283199999999999 21.15-9.862400000000001L21.15-9.862400000000001 21.15-11.136 18-11.136 18 0.35200000000000004ZM26.43 0.35200000000000004L29.45 0.35200000000000004 29.45-11.136 26.43-11.136 26.43 0.35200000000000004ZM26.43-14.5088L26.43-12.415999999999999 29.45-12.415999999999999 29.45-14.5088 26.43-14.5088ZM31.01 0.3904L34.16 0.3904 34.16-7.072000000000001Q34.32-9.2864 37.24-9.4144L37.24-9.4144Q40.2-9.3952 40.2-7.072000000000001L40.2-7.072000000000001 40.2 0.3904 43.34 0.3904 43.34-7.648Q43.31-9.1648 41.87-10.233600000000001 40.42-11.3024 38.14-11.3472L38.14-11.3472Q35.41-11.3472 34.16-9.6576L34.16-9.6576 34.16-11.136 31.01-11.136 31.01 0.3904ZM51.39 0.4736L51.39 0.4736Q53.83 0.45439999999999997 55.52-0.6784 57.2-1.8112000000000001 57.55-3.8656L57.55-3.8656 54.41-3.8656Q53.64-1.3184 51.52-1.2736L51.52-1.2736Q48.11-1.3568 48.11-5.2992L48.11-5.2992Q48.11-7.110399999999999 48.92-8.2432 49.72-9.3696 51.39-9.4144L51.39-9.4144Q52.74-9.3696 53.48-8.608 54.22-7.8528 54.41-6.9888L54.41-6.9888 57.55-6.9888Q56.78-9.4144 54.92-10.4 53.06-11.3856 51.39-11.3472L51.39-11.3472Q48.66-11.3024 46.85-9.6896 45.03-8.0768 44.97-5.3824000000000005L44.97-5.3824000000000005Q45.06-2.6496 46.93-1.1008 48.79 0.45439999999999997 51.39 0.4736L51.39 0.4736ZM59.44 0.35200000000000004L62.45 0.35200000000000004 62.45-11.136 59.44-11.136 59.44 0.35200000000000004ZM59.44-14.5088L59.44-12.415999999999999 62.45-12.415999999999999 62.45-14.5088 59.44-14.5088ZM64.01-11.1808L64.01 4.128 67.16 4.128 67.16-0.6976000000000001Q68.77 0.4096 70.5 0.3904L70.5 0.3904Q73.62 0.3264 75.35-1.3696000000000002 77.08-3.0592 77.12-5.632000000000001L77.12-5.632000000000001Q77.02-8.2432 75.19-9.8112 73.36-11.3856 70.82-11.424000000000001L70.82-11.424000000000001Q67.8-11.2192 67.16-9.5744L67.16-9.5744 67.16-11.1808 64.01-11.1808ZM70.44-1.3568L70.44-1.3568Q67.48-1.44 67.16-4.3584L67.16-4.3584 67.16-6.739199999999999Q67.39-9.3952 70.56-9.4976L70.56-9.4976Q73.9-9.472000000000001 73.97-5.5104L73.97-5.5104Q73.9-3.4304 72.83-2.3936 71.75-1.3568 70.44-1.3568L70.44-1.3568ZM78.48 0.35200000000000004L81.5 0.35200000000000004 81.5-14.5088 78.48-14.5088 78.48 0.35200000000000004ZM89.29 0.3904L89.29 0.3904Q94.33 0.16640000000000002 95.46-3.7824L95.46-3.7824 92.31-3.7824Q91.64-1.376 89.42-1.3568L89.42-1.3568Q86.4-1.5424000000000002 86.27-4.8896L86.27-4.8896 95.46-4.8896Q95.39-8.2624 93.71-9.856 92.02-11.4496 89.55-11.424000000000001L89.55-11.424000000000001Q86.63-11.3856 84.89-9.76 83.16-8.1408 83.13-5.465599999999999L83.13-5.465599999999999Q83.22-2.6112 85.1-1.12 86.98 0.3712 89.29 0.3904L89.29 0.3904ZM92.31-6.4512L86.27-6.4512Q86.3-9.4528 89.42-9.6576L89.42-9.6576Q90.96-9.6 91.64-8.5824 92.31-7.5648 92.31-6.4512L92.31-6.4512ZM102.73 0.4288L102.73 0.4288Q107.87 0.3904 108.26-2.592L108.26-2.592Q108.22-4.1088000000000005 106.79-4.9408 105.37-5.7728 103.41-6.2464L103.41-6.2464Q100.29-7.129600000000001 100.42-8.2624L100.42-8.2624Q100.55-9.4144 102.73-9.4528L102.73-9.4528Q104.69-9.4528 105.37-7.8528L105.37-7.8528 108.26-7.8528Q107.55-11.283199999999999 102.6-11.3856L102.6-11.3856Q100.29-11.3472 98.96-10.406400000000001 97.63-9.472000000000001 97.59-8.0128L97.59-8.0128Q97.66-6.8672 98.93-6.009600000000001 100.2-5.1584 102.09-4.6464L102.09-4.6464Q105.37-3.7632 105.37-2.8352L105.37-2.8352Q105.3-1.6 102.83-1.4976L102.83-1.4976Q100.45-1.6 99.97-3.168L99.97-3.168 97.15-3.168Q97.27-1.5808000000000002 98.85-0.5952000000000001 100.42 0.3904 102.73 0.4288L102.73 0.4288Z" transform="translate(-2.309999942779541, 15.065600395202637)" stroke-width="0.4" stroke-linejoin="round"></path>
        </g>
      </g>
    </g>
  </svg>